# xmcd CD database file
#
# Track frame offsets:
#	150
#	13151
#	22836
#	38387
#	54143
#	65500
#	77125
#	90039
#	100590
#	113215
#	123369
#	136681
#	146875
#	158616
#	171459
#	184011
#	195201
#	208143
#	218413
#	231206
#	242612
#	254335
#	266110
#	278009
#	287821
#
# Disc length: 4050 seconds
#
# Revision: 0
# Processed by: cddbd v1.5.2PL0 Copyright (c) Steve Scherf et al.
# Submitted via: CdAid 2001.05.15.01
#
DISCID=4a0fd019
DTITLE=Various Artist - Chart Toppers - Country Greatest, 2CD Sets - Disc 1
DYEAR=1900
DGENRE=
TTITLE0=Rose Garden - Lynn Anderson
TTITLE1=Please Help Me, I'm Falling - Hank Locklin
TTITLE2=I Won't Mention It Again - Ray Price
TTITLE3=Lookin' For Love - Johnny Lee
TTITLE4=Help Me Make It Through The Night - Sammi Smith
TTITLE5=The Happiest Girl In The Whole USA - Donna Fargo
TTITLE6=Don't Let Me Cross Over - Carl and Pearl Butler
TTITLE7=Wings Of A Dove - Ferlin Husky
TTITLE8=Wolverton Mountain - Claude King
TTITLE9=Hello Walls - Faron Young
TTITLE10=Almost Persuaded - David Houston
TTITLE11=Once A Day - Connie Smith
TTITLE12=There Goes My Everything - Jack Greene
TTITLE13=It's Four In The Morning - Faron Young
TTITLE14=My Elusive Dreams - David Houston
TTITLE15=My Shoes Keep Walking Back To You - Ray Price
TTITLE16=Don't Break The Heart That Loves You - Margo Smith
TTITLE17=Have A Little Faith - David Houston
TTITLE18=The Lord Knows I'm Drinking - Cal Smith
TTITLE19=Laura, What's He Got That I Ain't Got - Leon Ashley
TTITLE20=All The Time - Jack Greene
TTITLE21=Gill On The Billboard - Del Reeves
TTITLE22=Wild Side Of Life - Hank Thompson
TTITLE23=Ridin' My Thumb To Mexico - Johnny Rodriguez
TTITLE24=Somebody's Gonna Love You - Lee Greenwood
EXTD=
EXTT0=
EXTT1=
EXTT2=
EXTT3=
EXTT4=
EXTT5=
EXTT6=
EXTT7=
EXTT8=
EXTT9=
EXTT10=
EXTT11=
EXTT12=
EXTT13=
EXTT14=
EXTT15=
EXTT16=
EXTT17=
EXTT18=
EXTT19=
EXTT20=
EXTT21=
EXTT22=
EXTT23=
EXTT24=
PLAYORDER=
